<svg width="1024" height="1024" viewBox="0 0 1024 1024" fill="none" xmlns="http://www.w3.org/2000/svg">
<rect width="1024" height="1024" rx="230" fill="#1e3a5f"/>
<path d="M686.925 674.37C704.04 669.58 705.495 658.9 705.27 643.45C705.035 627.485 705.185 611.345 705.155 595.365L705.12 487.412L705.13 408.823C705.135 405.619 705.405 401.808 705.15 398.716C703.84 382.648 710.58 361.757 692.995 352.817C690.335 351.477 687.465 350.614 684.505 350.268C680.71 349.792 650.59 349.794 646.805 350.151C622.605 353.767 625.94 374.571 625.99 392.856L626.05 428.207L626.035 543.76L626.015 619.72C626.01 649.895 619.245 677.895 661.885 675.15C669.955 674.63 678.445 675.835 686.925 674.37ZM376.602 674.495C400.221 668.85 396.535 651.27 396.534 632.37L396.52 593L396.523 469.955L396.528 400.444C396.53 390.016 397.027 378.397 395.888 368.274C394.94 359.859 384.553 350.579 376.347 350.339C364.415 349.99 349.878 349.28 338.082 350.112C326.177 352.829 318.773 359.846 318.502 372.631C318.33 380.707 318.393 388.778 318.397 396.855L318.438 441.637L318.431 570.285L318.436 629.17C318.427 638.48 317.892 649.435 319.091 658.345C320.167 666.34 330.443 674.36 338.133 674.58C348.747 674.885 366.425 676.52 376.602 674.495ZM248.009 470.155C235.936 469.844 220.073 468.495 219.965 485.375C219.913 500.21 219.958 515.055 219.94 529.885C219.937 532.635 219.74 536.705 220.3 539.335C223.003 552 238.737 549.825 248.01 549.575L247.917 583.645C247.904 591.305 247.459 599.24 248.807 606.795C250.166 614.41 254.293 617.585 260.602 621.165L262.223 621.625C276.758 625.825 297.208 622.78 298.029 604.005C298.543 590.385 298.097 575.575 298.044 561.855L298.069 493.725L298.258 444.387C298.234 433.621 300.234 418.433 292.693 410.31C283.856 400.79 263.669 400.79 254.117 409.377C248.241 414.735 247.869 422.209 247.881 429.759L248.009 470.155ZM746.345 403.187C734.3 404.456 725.68 410.336 725.175 423.175C724.73 434.376 724.92 445.583 724.92 456.794L724.935 520.55L724.925 575.02C724.925 584.82 724.32 597.88 725.61 607.29C728.38 627.55 763.94 628.75 772.77 611.69C776.135 603.61 775.185 592.67 775.16 583.875L775.105 549.635C790.345 549.885 803.45 552.66 803.11 532.325C802.895 519.59 802.755 504.915 803.11 492.309C803.765 469.051 794.745 469.646 775.115 470.085L775.18 441.461C775.255 422.043 776.41 402.482 749.63 403.005C748.535 403.033 747.44 403.093 746.345 403.187ZM416.547 472.505C417.225 477.311 417.079 499.045 416.911 504.85C416.527 518.12 417.641 536.73 416.686 549.5L540.44 549.525C561.995 549.515 584.46 549.2 605.95 549.55C606.49 545.47 606.1 540.39 606.125 536.2C606.245 515.045 605.665 493.685 606.155 472.548L475.347 472.543L436.129 472.591C431.388 472.604 420.886 472.946 416.547 472.505Z" fill="#ffffff"/>
<path d="M246.993 468.995C246.775 457.619 245.125 424.444 248.736 415.515C250.692 410.677 254.48 406.276 259.409 404.331C267.029 401.324 279.053 401.138 286.513 404.504C291.179 406.61 295.833 410.845 297.584 415.755C298.682 418.833 299.104 422.29 299.276 425.542C299.847 436.363 299.518 447.328 299.501 458.162L299.493 512L299.56 569.465C299.557 575.945 300.406 599.07 298.029 604.005C298.542 590.385 298.097 575.575 298.044 561.855L298.069 493.725L298.258 444.386C298.233 433.62 300.233 418.433 292.692 410.31C283.856 400.79 263.669 400.79 254.117 409.377C248.241 414.734 247.869 422.209 247.88 429.759L248.009 470.155C235.935 469.844 220.072 468.495 219.965 485.374C219.912 500.21 219.957 515.055 219.939 529.885C219.936 532.635 219.739 536.705 220.3 539.335C223.003 552 238.736 549.825 248.01 549.575L247.917 583.645C247.904 591.305 247.459 599.24 248.807 606.795C250.166 614.41 254.292 617.585 260.602 621.165C257.224 620.805 255.301 619.585 252.871 617.18C250.365 614.735 248.607 611.625 247.801 608.215C246.539 602.8 246.845 591.19 246.848 585.27L246.944 550.69C238.882 550.305 229.3 552.38 222.956 546.59C220.393 544.185 218.972 540.685 218.961 537.19C218.737 523.04 219.054 509.27 218.923 495.094C218.807 482.503 217.489 470.979 234.077 469.327C238.24 468.912 242.756 469.058 246.993 468.995Z" fill="#ffffff"/>
</svg>
